<svg width="808" height="792" viewBox="0 0 808 792" fill="none" xmlns="http://www.w3.org/2000/svg">
<ellipse cx="332" cy="340" rx="332" ry="340" fill="#04B9C6"/>
<ellipse cx="476" cy="456" rx="332" ry="336" fill="#029AA5"/>
<path d="M321.783 469.375C307.956 475.316 298.284 483.147 293.32 487.767C291.058 489.873 287.558 489.875 285.293 487.771C282.911 485.559 282.766 481.838 284.974 479.451C300.57 462.59 331.13 430.246 406.027 426.64C496.286 422.297 516.5 489.354 596.884 473.465C596.884 473.465 557.647 476.586 482.425 424.054C422.885 382.474 354.191 415.112 352.939 415.505C353.5 414.654 389.943 360.367 461.353 360.367C540.802 360.367 575.386 462.248 666.985 450.097C666.985 450.097 609.035 553.848 508.088 553.848C441.456 553.848 403.638 508.144 370.173 477.534C357.065 465.544 338.103 462.36 321.783 469.375Z" fill="white"/>
</svg>
