<svg width="684" height="598" viewBox="0 0 684 598" fill="none" xmlns="http://www.w3.org/2000/svg">
<ellipse cx="332" cy="146" rx="332" ry="340" fill="#04B9C6"/>
<ellipse cx="476" cy="262" rx="332" ry="336" fill="#029AA5"/>
<path d="M321.783 275.375C307.956 281.316 298.284 289.147 293.32 293.767C291.058 295.873 287.558 295.875 285.293 293.771C282.911 291.559 282.766 287.838 284.974 285.451C300.57 268.59 331.13 236.246 406.027 232.64C496.286 228.297 516.5 295.354 596.884 279.465C596.884 279.465 557.647 282.586 482.425 230.054C422.885 188.474 354.191 221.112 352.939 221.505C353.5 220.654 389.943 166.367 461.353 166.367C540.802 166.367 575.386 268.248 666.985 256.097C666.985 256.097 609.035 359.848 508.088 359.848C441.456 359.848 403.638 314.144 370.173 283.534C357.065 271.544 338.103 268.36 321.783 275.375Z" fill="white"/>
</svg>
