<svg width="102" height="100" viewBox="0 0 102 100" fill="none" xmlns="http://www.w3.org/2000/svg">
<ellipse cx="50.9109" cy="50.4242" rx="41.9109" ry="42.4242" fill="white"/>
<path d="M31.8444 51.7636C30.0989 52.5138 28.8779 53.5025 28.2514 54.0859C27.9657 54.3518 27.5239 54.352 27.238 54.0864C26.9373 53.807 26.919 53.3372 27.1977 53.0358C29.1665 50.9069 33.0243 46.823 42.4792 46.3678C53.8732 45.8194 56.425 54.2863 66.5725 52.28C66.5725 52.28 61.6193 52.6741 52.1235 46.0413C44.6073 40.7913 35.9355 44.9122 35.7774 44.9618C35.8482 44.8544 40.4488 38 49.4635 38C59.4929 38 63.8586 50.8638 75.4219 49.3296C75.4219 49.3296 68.1064 62.4294 55.3631 62.4294C46.9516 62.4294 42.1776 56.6586 37.953 52.7938C36.2984 51.2799 33.9046 50.8778 31.8444 51.7636Z" fill="#04B9C6"/>
</svg>
